<?xml version="1.0" encoding="UTF-8"?>
<svg id="Layer_1" xmlns="http://www.w3.org/2000/svg" viewBox="0 0 55.67 61.7">
  <defs>
    <style>
      .cls-1 {
        fill: #fff;
      }
    </style>
  </defs>
  <path class="cls-1" d="M51.84,5.93v47.86c0,2.61-2.12,4.73-4.73,4.73H8.82c-2.61,0-4.73-2.12-4.73-4.73h0c0-2.61,2.12-4.73,4.73-4.73h33.63c2.61,0,4.73-2.12,4.73-4.73V0H4.73C2.12,0,0,2.12,0,4.73v56.97h50.94c2.61,0,4.73-2.12,4.73-4.73V5.93h-3.83ZM23.39,16.5c.57-.53,1.06-1.12,1.69-1.58,4.69-3.44,10.5.31,10.07,5.54-.4,4.89-7.49,10.66-11.74,12.57h-.07c-4.34-2.09-11.53-7.81-11.71-12.98-.19-5.69,7.11-9.32,11.76-3.55Z"/>
</svg>