<?xml version="1.0" encoding="UTF-8"?>
<svg id="Layer_1" xmlns="http://www.w3.org/2000/svg" version="1.1" viewBox="0 0 61.1 42.3">
  <!-- Generator: Adobe Illustrator 29.0.0, SVG Export Plug-In . SVG Version: 2.1.0 Build 186)  -->
  <defs>
    <style>
      .st0 {
        fill: #fff;
      }

      .st0, .st1 {
        stroke: #fff;
        stroke-miterlimit: 10;
      }

      .st1 {
        fill: none;
        stroke-linecap: round;
        stroke-width: 3px;
      }
    </style>
  </defs>
  <path class="st0" d="M.5,21.1v-9.3c0-.2.2-.3.6-.3h12.3c.7,0,1.4-.2,1.9-.5L32,.7c.8-.5,2.2-.1,2.2.6v39.7c0,.7-1.4,1.1-2.2.6l-16.8-10.2c-.5-.3-1.2-.5-1.9-.5H1.1c-.3,0-.6-.1-.6-.3,0,0,0-9.5,0-9.5Z"/>
  <path class="st1" d="M38.9,14.4h0c4.2,4.2,4.2,11,0,15.2h0"/>
  <path class="st1" d="M44.3,9.4h0c6.9,6.9,6.9,18.1,0,25h-.1"/>
  <path class="st1" d="M51.6,3.8h0c9.6,9.6,9.6,25.2,0,34.8l-.2.2"/>
</svg>